PathFileType	4	(X/Y/Z)	s05c0102.trc
DataRate	CameraRate	NumFrames	NumMarkers	Units	OrigDataRate	OrigDataStartFrame	OrigNumFrames
200	200	4	50	mm	200	1500	2000
Frame#	Time	racr			lacr			c7			jug			rlel			rdr			llel			ldr			s2			lic			ric			lasi			rasi			rpsi			lpsi			rgt			lgt			rth1			rth2			rth3			rth4			rlfc			rmfc			rsh1			rsh2			rsh3			rsh4			rlmal			rmmal			rcal			rtoe			rmt5			lth1			lth2			lth4			lth3			llfc			lmfc			lsh1			lsh2			lsh3			lsh4			llmal			lmmal			lcal			ltoe			lmt5			SBIKE			LBIKE			RBIKE			
		X1	Y1	Z1	X2	Y2	Z2	X3	Y3	Z3	X4	Y4	Z4	X5	Y5	Z5	X6	Y6	Z6	X7	Y7	Z7	X8	Y8	Z8	X9	Y9	Z9	X10	Y10	Z10	X11	Y11	Z11	X12	Y12	Z12	X13	Y13	Z13	X14	Y14	Z14	X15	Y15	Z15	X16	Y16	Z16	X17	Y17	Z17	X18	Y18	Z18	X19	Y19	Z19	X20	Y20	Z20	X21	Y21	Z21	X22	Y22	Z22	X23	Y23	Z23	X24	Y24	Z24	X25	Y25	Z25	X26	Y26	Z26	X27	Y27	Z27	X28	Y28	Z28	X29	Y29	Z29	X30	Y30	Z30	X31	Y31	Z31	X32	Y32	Z32	X33	Y33	Z33	X34	Y34	Z34	X35	Y35	Z35	X36	Y36	Z36	X37	Y37	Z37	X38	Y38	Z38	X39	Y39	Z39	X40	Y40	Z40	X41	Y41	Z41	X42	Y42	Z42	X43	Y43	Z43	X44	Y44	Z44	X45	Y45	Z45	X46	Y46	Z46	X47	Y47	Z47	X48	Y48	Z48	X49	Y49	Z49	X50	Y50	Z50	
1500	7.5000	482.265108	1284.687096	-209.295505	460.040166	1266.510654	-457.902305	453.775267	1340.593415	-340.347851	393.281623	1194.672931	-316.336645	517.269849	1083.688902	-20.982235	694.257073	929.519951	-98.876335	462.981919	1021.955045	-608.722861	677.634628	921.249074	-490.774750	-110.780612	1177.479199	-256.456587	9.294304	1189.692161	-414.891760	47.653134	1203.248050	-131.118830	62.923501	1141.132447	-380.677519	88.074343	1139.223127	-161.564211	-73.214686	1226.463103	-220.683385	-82.250021	1228.344466	-307.294962	-2.611303	1059.446478	-103.191595	-31.453220	1103.344804	-441.466907	69.425931	955.768109	-93.050877	130.985982	890.893018	-92.585599	150.044529	805.048034	-101.377113	162.415170	908.368966	-102.916841	231.376661	680.798972	-129.287047	205.118650	670.557702	-234.304153	198.589919	580.015560	-93.929243	215.530240	493.851287	-104.242060	191.419274	411.220243	-103.367727	241.488860	494.612943	-133.163155	191.168342	275.790840	-110.573623	196.853708	300.360358	-190.139958	118.658077	245.344482	-149.854070	414.070347	207.912856	-161.409066	314.949681	191.238046	-91.537366	90.873720	1038.845872	-456.223470	176.924657	1035.678563	-452.406338	188.309704	1066.526972	-432.902010	252.802631	986.321133	-457.419926	375.152593	900.856097	-427.266835	361.818378	880.770601	-317.006640	285.007661	820.175352	-450.269023	240.252792	745.755748	-441.228424	162.352585	702.870327	-441.440574	263.951254	723.532444	-421.169639	81.244712	612.847889	-438.688197	118.653643	618.075473	-363.739627	11.935708	624.708023	-394.759279	202.141708	398.641423	-401.872880	108.614639	459.463880	-462.355221	-219.962755	911.113150	-273.551121	-53.325143	79.689782	-474.946386	-53.343883	79.236011	-77.320708	
1501	7.5050	482.875222	1284.266369	-210.430207	459.425305	1266.984181	-458.968629	453.862661	1340.651971	-341.266158	393.199114	1194.777677	-317.403513	518.112522	1083.750728	-21.546840	694.625564	928.838285	-98.990279	462.967125	1022.338298	-608.482822	677.605216	921.920094	-490.596871	-110.150113	1178.288547	-254.868512	8.439102	1191.673798	-413.513223	49.536400	1202.882486	-130.200701	62.446222	1142.953362	-380.007092	89.211869	1138.526224	-161.391604	-72.001518	1226.898053	-218.323233	-82.044975	1229.503807	-304.780153	-2.132782	1059.000328	-102.864828	-31.815360	1106.260445	-440.521922	67.204070	954.270635	-91.976140	127.396267	888.229299	-90.711460	144.600772	801.897940	-99.349339	159.287391	904.896581	-100.733529	223.779374	676.184763	-127.345883	197.330257	665.815697	-232.326474	191.338530	575.709218	-92.211294	208.114343	489.593055	-102.550932	184.027765	407.004118	-101.575530	234.144402	490.394417	-131.342173	184.297298	270.927278	-109.475980	190.278766	296.836011	-189.463306	111.642069	241.746738	-149.136873	406.377822	199.942007	-161.072931	307.128040	184.352270	-91.169027	91.015020	1043.253621	-455.661441	177.079081	1041.534044	-451.540980	187.757665	1072.219130	-431.680181	253.743425	993.281250	-456.705278	378.757159	910.264187	-427.174546	365.348636	889.459333	-316.990439	288.721642	828.942089	-449.810330	244.479657	754.288737	-440.798874	166.870305	711.017657	-440.866818	268.486493	731.955694	-420.978819	86.241397	619.440858	-438.082181	123.406368	625.119780	-362.657117	16.433622	629.829839	-394.241555	210.823106	407.658673	-401.902677	116.378053	466.743101	-462.165818	-219.894041	911.144830	-273.362748	-53.332136	79.671144	-474.844639	-53.331442	79.245573	-77.304665	
1502	7.5100	483.356269	1283.762314	-211.611951	458.769528	1267.468406	-460.028494	453.887507	1340.635972	-342.131048	393.039144	1194.803263	-318.485407	518.755015	1083.670242	-22.028165	694.980691	928.312647	-98.949905	462.888790	1022.791360	-608.305066	677.491687	922.673879	-490.505271	-109.709226	1178.909579	-253.856823	7.356942	1193.289353	-411.859667	51.079870	1201.500657	-129.101911	61.720944	1144.744289	-379.139973	90.308910	1137.802910	-161.232920	-70.972371	1227.236029	-216.048624	-82.026862	1230.589356	-302.280634	-1.847005	1058.581190	-102.616470	-32.343506	1108.760374	-439.449998	65.137663	953.260122	-90.802955	123.944001	885.853289	-88.868690	139.533148	799.301930	-97.015801	156.217892	901.941085	-99.146494	216.322245	672.068146	-125.595225	190.012287	661.639883	-230.381976	183.906969	572.021608	-90.710529	200.586012	485.762444	-100.838771	176.416463	403.235026	-99.960322	226.744776	486.542174	-129.594013	176.962789	266.786549	-108.643239	183.568424	293.001655	-188.502881	104.136445	238.821611	-148.615982	398.297496	192.510472	-160.685406	298.822818	178.002761	-90.867050	90.922855	1047.216021	-454.990529	176.976204	1046.690649	-450.392893	187.120413	1077.571363	-430.292270	254.381934	999.949399	-455.785330	381.275566	918.925098	-426.821921	368.479994	897.926934	-316.699741	292.544003	837.395922	-449.192093	248.850181	762.386236	-440.308588	171.564549	718.574168	-440.323455	273.123070	740.199293	-420.800278	91.655932	625.406995	-437.476150	128.967287	631.649109	-362.252774	21.494716	634.467040	-393.942070	219.813451	415.723544	-401.359537	124.593004	473.411118	-462.024481	-219.784481	911.233676	-273.313736	-53.314202	79.746988	-474.804589	-53.330896	79.267256	-77.265199	
1503	7.5150	483.799396	1283.214480	-212.617145	458.082778	1267.908325	-461.219974	453.860717	1340.539414	-342.944570	392.895352	1194.729288	-319.461645	519.178614	1083.556830	-22.364453	695.518652	927.390547	-98.983919	462.644894	1023.221189	-608.364448	677.353083	923.571075	-490.476505	-109.387847	1179.391950	-252.478213	6.473401	1195.128376	-410.595929	53.065472	1201.181667	-127.863085	60.876845	1146.427383	-378.307159	91.218793	1137.148590	-161.082293	-70.129780	1227.528584	-213.866412	-84.251853	1231.812216	-298.847106	-1.571463	1058.110701	-102.334300	-33.074145	1110.877518	-438.294455	63.293662	952.562427	-89.257554	120.738102	884.091844	-87.188486	134.833934	797.228464	-95.011023	153.408818	899.490136	-97.623037	209.424590	668.551158	-123.802187	183.440918	658.123540	-228.850466	176.485857	568.319739	-89.334837	193.155476	482.514963	-99.535857	168.723465	399.913855	-98.758255	219.418719	483.064074	-128.069739	169.297151	263.196326	-107.965538	176.334946	289.802533	-187.686426	96.304673	236.291868	-148.389986	389.753539	185.655165	-160.404936	290.070942	172.363714	-90.635180	90.611811	1050.808380	-454.059034	176.689023	1051.816672	-449.423071	186.285515	1082.551133	-429.028666	254.540185	1005.906823	-454.145997	383.511300	927.530085	-426.414619	371.243516	906.505663	-316.181672	296.197203	845.556845	-448.604530	253.269436	769.989951	-439.788658	176.400255	725.503792	-439.789817	277.811157	748.010562	-420.521457	97.363603	630.713527	-436.864986	134.634588	637.398006	-361.836201	26.917165	638.449668	-393.614813	229.332711	423.435571	-401.393307	133.132134	479.419470	-461.933784	-219.554366	911.395409	-273.665339	-53.313653	79.897828	-474.866946	-53.317930	79.275747	-77.238554	
